<?xml version="1.0" encoding="UTF-8"?> <svg xmlns="http://www.w3.org/2000/svg" width="30" height="30" viewBox="0 0 30 30" fill="none"> <path d="M25.7545 16.8385C24.7417 15.8259 24.7417 14.1819 25.7545 13.1694L27.9231 11.0013C30.4173 8.50756 30.9336 4.9973 27.9588 2.01914C24.98 -0.95902 21.4889 -0.391185 19.0105 2.08664L16.842 4.25475C15.8292 5.26732 14.1849 5.26732 13.1721 4.25475L11.0036 2.08664C8.50934 -0.407068 4.99835 -0.923282 2.01956 2.05091C-0.959221 5.02907 -0.391266 8.51947 2.08708 10.9973L4.25564 13.1654C5.26842 14.178 5.26842 15.8219 4.25564 16.8345L2.08708 19.0026C-0.391266 21.4804 -0.959221 24.9708 2.01956 27.949C4.99835 30.9271 8.50537 30.4109 11.0036 27.9133L13.1721 25.7451C14.1849 24.7326 15.8292 24.7326 16.842 25.7451L19.0105 27.9133C21.4889 30.3911 24.98 30.9589 27.9588 27.9808C30.9376 25.0026 30.4213 21.4963 27.9231 18.9986L25.7545 16.8305V16.8385ZM25.5837 25.6141C24.2055 26.992 22.4699 26.4917 21.1592 25.1853L17.5926 21.6194C17.3742 21.401 17.0247 21.401 16.8062 21.6194L15.722 22.7035C15.3248 23.1005 14.6814 23.1005 14.2842 22.7035L13.1999 21.6194C12.9815 21.401 12.632 21.401 12.4135 21.6194L8.84693 25.1853C7.54024 26.4917 5.78474 26.9761 4.39067 25.5823C3.01249 24.2045 3.51293 22.4692 4.81962 21.1588L8.38622 17.5929C8.60466 17.3745 8.60466 17.0251 8.38622 16.8067L7.30194 15.7226C6.90477 15.3256 6.90477 14.6823 7.30194 14.2852L8.38622 13.2011C8.60466 12.9827 8.60466 12.6333 8.38622 12.4149L4.81962 8.84905C3.51293 7.54263 3.01249 5.80339 4.39067 4.42549C5.78474 3.03171 7.54024 3.51219 8.84693 4.82258L12.4135 8.38843C12.632 8.60683 12.9815 8.60683 13.1999 8.38843L14.2842 7.30438C14.6814 6.90729 15.3248 6.90729 15.722 7.30438L16.8062 8.38843C17.0247 8.60683 17.3742 8.60683 17.5926 8.38843L21.1592 4.82258C22.4659 3.51616 24.2055 3.01583 25.5837 4.39373C26.9778 5.78751 26.4972 7.54263 25.1866 8.84905L21.62 12.4149C21.4015 12.6333 21.4015 12.9827 21.62 13.2011L22.7042 14.2852C23.1014 14.6823 23.1014 15.3256 22.7042 15.7226L21.62 16.8067C21.4015 17.0251 21.4015 17.3745 21.62 17.5929L25.1866 21.1588C26.4932 22.4652 26.9778 24.2203 25.5837 25.6141Z" fill="#FF3E00"></path> </svg> 